<?xml version="1.0" encoding="UTF-8"?>
<!DOCTYPE svg PUBLIC "-//W3C//DTD SVG 1.1//EN" "http://www.w3.org/Graphics/SVG/1.1/DTD/svg11.dtd">
<svg version="1.1" xmlns="http://www.w3.org/2000/svg" xmlns:xlink="http://www.w3.org/1999/xlink" x="0" y="0" width="240" height="215" viewBox="0, 0, 240, 215">
  <g id="Layer_1">
    <g>
      <path d="M178.628,78.798 C178.628,78.798 202.139,56.178 205.243,91.219 C205.243,91.219 210.122,114.728 178.628,115.172 L178.628,78.798 z" fill="#000000"/>
      <path d="M178.628,78.798 C178.628,78.798 202.139,56.178 205.243,91.219 C205.243,91.219 210.122,114.728 178.628,115.172 L178.628,78.798 z" fill-opacity="0" stroke="#000000" stroke-width="8" stroke-linecap="round" stroke-linejoin="round"/>
    </g>
    <g>
      <path d="M62.416,78.798 C62.416,78.798 38.907,56.178 35.802,91.219 C35.802,91.219 30.923,114.728 62.416,115.172 L62.416,78.798 z" fill="#000000"/>
      <path d="M62.416,78.798 C62.416,78.798 38.907,56.178 35.802,91.219 C35.802,91.219 30.923,114.728 62.416,115.172 L62.416,78.798 z" fill-opacity="0" stroke="#000000" stroke-width="8" stroke-linecap="round" stroke-linejoin="round"/>
    </g>
    <g>
      <path d="M72.619,54.403 C72.619,54.403 18.948,140.453 120.523,140.009 C120.523,140.009 207.46,151.542 172.419,54.847 C172.419,54.847 160.886,23.353 114.756,22.91 C114.756,22.91 83.264,32.669 72.619,54.403 z" fill="#000000"/>
      <path d="M72.619,54.403 C72.619,54.403 18.948,140.453 120.523,140.009 C120.523,140.009 207.46,151.542 172.419,54.847 C172.419,54.847 160.886,23.353 114.756,22.91 C114.756,22.91 83.264,32.669 72.619,54.403 z" fill-opacity="0" stroke="#000000" stroke-width="8" stroke-linecap="round" stroke-linejoin="round"/>
    </g>
    <g>
      <path d="M134.716,8.716 C134.716,8.716 124.071,2.507 116.531,5.611 C116.531,5.611 120.523,7.83 120.523,9.604 C120.523,9.604 60.642,11.82 53.989,65.935 C53.989,65.935 54.432,77.025 58.424,85.452 C58.424,85.452 59.755,77.911 61.973,74.806 C61.973,74.806 58.867,86.34 62.416,92.992 C62.416,92.992 70.843,64.163 77.054,57.064 L77.497,68.153 C77.497,68.153 97.901,55.734 100.119,45.088 C100.119,45.088 104.998,57.508 102.78,64.16 C102.78,64.16 120.523,48.191 125.401,36.659 C125.401,36.659 144.032,48.638 145.806,65.049 C145.806,65.049 151.572,57.509 151.129,41.096 C151.129,41.096 171.977,61.057 175.081,85.452 C175.081,85.452 179.516,68.596 178.628,64.16 C178.628,64.16 183.065,74.806 182.621,81.46 C182.621,81.46 194.154,22.465 144.475,12.708 C144.475,12.708 146.249,12.709 150.685,9.16 C150.685,9.16 140.926,5.611 134.716,8.716 z" fill="#000000"/>
      <path d="M134.716,8.716 C134.716,8.716 124.071,2.507 116.531,5.611 C116.531,5.611 120.523,7.83 120.523,9.604 C120.523,9.604 60.642,11.82 53.989,65.935 C53.989,65.935 54.432,77.025 58.424,85.452 C58.424,85.452 59.755,77.911 61.973,74.806 C61.973,74.806 58.867,86.34 62.416,92.992 C62.416,92.992 70.843,64.163 77.054,57.064 L77.497,68.153 C77.497,68.153 97.901,55.734 100.119,45.088 C100.119,45.088 104.998,57.508 102.78,64.16 C102.78,64.16 120.523,48.191 125.401,36.659 C125.401,36.659 144.032,48.638 145.806,65.049 C145.806,65.049 151.572,57.509 151.129,41.096 C151.129,41.096 171.977,61.057 175.081,85.452 C175.081,85.452 179.516,68.596 178.628,64.16 C178.628,64.16 183.065,74.806 182.621,81.46 C182.621,81.46 194.154,22.465 144.475,12.708 C144.475,12.708 146.249,12.709 150.685,9.16 C150.685,9.16 140.926,5.611 134.716,8.716 z" fill-opacity="0" stroke="#000000" stroke-width="8" stroke-linecap="round" stroke-linejoin="round"/>
    </g>
    <g>
      <path d="M95.24,86.782 C95.24,86.782 129.838,96.098 148.023,85.896 C148.023,85.896 172.419,134.243 131.611,145.333 C131.611,145.333 68.626,151.986 95.24,86.782 z" fill="#000000"/>
      <path d="M95.24,86.782 C95.24,86.782 129.838,96.098 148.023,85.896 C148.023,85.896 172.419,134.243 131.611,145.333 C131.611,145.333 68.626,151.986 95.24,86.782 z" fill-opacity="0" stroke="#000000" stroke-width="8" stroke-linecap="round" stroke-linejoin="round"/>
    </g>
    <g>
      <path d="M138.709,63.274 C138.709,63.274 152.017,48.193 172.419,54.847" fill="#000000"/>
      <path d="M138.709,63.274 C138.709,63.274 152.017,48.193 172.419,54.847" fill-opacity="0" stroke="#000000" stroke-width="8" stroke-linecap="round" stroke-linejoin="round"/>
    </g>
    <g>
      <path d="M99.676,63.274 C99.676,63.274 86.369,48.193 65.965,54.847" fill="#000000"/>
      <path d="M99.676,63.274 C99.676,63.274 86.369,48.193 65.965,54.847" fill-opacity="0" stroke="#000000" stroke-width="8" stroke-linecap="round" stroke-linejoin="round"/>
    </g>
    <g>
      <path d="M157.339,68.597 L143.587,76.137 L160,80.574" fill="#000000"/>
      <path d="M157.339,68.597 L143.587,76.137 L160,80.574" fill-opacity="0" stroke="#000000" stroke-width="8" stroke-linecap="round" stroke-linejoin="round"/>
    </g>
    <g>
      <path d="M85.705,68.597 L99.455,76.137 L83.043,80.574" fill="#000000"/>
      <path d="M85.705,68.597 L99.455,76.137 L83.043,80.574" fill-opacity="0" stroke="#000000" stroke-width="8" stroke-linecap="round" stroke-linejoin="round"/>
    </g>
    <g>
      <path d="M124.071,80.574 C124.071,82.656 122.383,84.344 120.3,84.344 C118.218,84.344 116.53,82.656 116.53,80.574 C116.53,78.492 118.218,76.804 120.3,76.804 C122.383,76.804 124.071,78.492 124.071,80.574 z" fill="#000000"/>
      <path d="M124.071,80.574 C124.071,82.656 122.383,84.344 120.3,84.344 C118.218,84.344 116.53,82.656 116.53,80.574 C116.53,78.492 118.218,76.804 120.3,76.804 C122.383,76.804 124.071,78.492 124.071,80.574 z" fill-opacity="0" stroke="#000000" stroke-width="8" stroke-linecap="round" stroke-linejoin="round"/>
    </g>
    <g>
      <path d="M171.532,87.005 C171.532,85.658 168.255,84.566 164.214,84.566 C160.171,84.566 156.896,85.658 156.896,87.005 C156.896,88.353 160.171,89.444 164.214,89.444 C168.255,89.444 171.532,88.353 171.532,87.005 z" fill="#000000"/>
      <path d="M171.532,87.005 C171.532,85.658 168.255,84.566 164.214,84.566 C160.171,84.566 156.896,85.658 156.896,87.005 C156.896,88.353 160.171,89.444 164.214,89.444 C168.255,89.444 171.532,88.353 171.532,87.005 z" fill-opacity="0" stroke="#000000" stroke-width="8" stroke-linecap="round" stroke-linejoin="round"/>
    </g>
    <g>
      <path d="M84.594,87.005 C84.594,85.658 81.317,84.566 77.275,84.566 C73.233,84.566 69.957,85.658 69.957,87.005 C69.957,88.353 73.233,89.444 77.275,89.444 C81.317,89.444 84.594,88.353 84.594,87.005 z" fill="#000000"/>
      <path d="M84.594,87.005 C84.594,85.658 81.317,84.566 77.275,84.566 C73.233,84.566 69.957,85.658 69.957,87.005 C69.957,88.353 73.233,89.444 77.275,89.444 C81.317,89.444 84.594,88.353 84.594,87.005 z" fill-opacity="0" stroke="#000000" stroke-width="8" stroke-linecap="round" stroke-linejoin="round"/>
    </g>
    <g>
      <path d="M121.923,14.342 C121.923,14.342 104.294,15.945 100.689,19.951 L124.326,19.551 L117.917,29.967 L135.946,19.149 L129.937,17.947 L133.542,14.743 L125.527,15.144 L126.729,10.736 L121.923,14.342 z" fill="#000000"/>
      <path d="M121.923,14.342 C121.923,14.342 104.294,15.945 100.689,19.951 L124.326,19.551 L117.917,29.967 L135.946,19.149 L129.937,17.947 L133.542,14.743 L125.527,15.144 L126.729,10.736 L121.923,14.342 z" fill-opacity="0" stroke="#000000" stroke-width="8" stroke-linecap="round" stroke-linejoin="round"/>
    </g>
    <g>
      <path d="M141.554,16.746 C141.554,16.746 157.98,19.149 161.585,23.957 L145.562,22.355 L141.152,32.371 L136.746,17.947 L141.152,23.157 L141.554,16.746 z" fill="#000000"/>
      <path d="M141.554,16.746 C141.554,16.746 157.98,19.149 161.585,23.957 L145.562,22.355 L141.152,32.371 L136.746,17.947 L141.152,23.157 L141.554,16.746 z" fill-opacity="0" stroke="#000000" stroke-width="8" stroke-linecap="round" stroke-linejoin="round"/>
    </g>
    <g>
      <path d="M122.369,210.101 C122.369,210.101 48.585,213.175 52.684,164.499 C52.684,164.499 53.029,132.437 99.095,116.72 C99.095,116.72 115.061,110.034 116.687,102.446 C116.687,102.446 126.101,111.681 141.369,114.01 C173.344,118.888 198.46,137.085 196.068,169.536 C196.068,169.536 196.922,215.225 122.369,210.101 z" fill="#000000"/>
      <path d="M122.369,210.101 C122.369,210.101 48.585,213.175 52.684,164.499 C52.684,164.499 53.029,132.437 99.095,116.72 C99.095,116.72 115.061,110.034 116.687,102.446 C116.687,102.446 126.101,111.681 141.369,114.01 C173.344,118.888 198.46,137.085 196.068,169.536 C196.068,169.536 196.922,215.225 122.369,210.101 z" fill-opacity="0" stroke="#000000" stroke-width="8" stroke-linecap="round" stroke-linejoin="round"/>
    </g>
    <path d="M116.875,103.393 C116.875,103.393 126.067,123.573 158.457,126.73" fill="#000000"/>
    <path d="M120.507,101.717 C120.511,101.774 120.609,102.012 120.681,102.185 L120.944,102.767 C121.132,103.162 121.338,103.563 121.558,103.963 C121.997,104.763 122.488,105.558 123.014,106.337 C124.068,107.897 125.268,109.397 126.582,110.813 C129.209,113.649 132.285,116.158 135.658,118.286 C142.412,122.565 150.31,125.266 158.457,126.73 C150.185,126.585 141.745,125.211 133.813,121.835 C129.854,120.153 126.041,117.975 122.548,115.254 C120.801,113.895 119.138,112.399 117.583,110.754 C116.807,109.93 116.056,109.07 115.34,108.157 C114.982,107.7 114.632,107.231 114.29,106.74 L113.78,105.979 C113.604,105.698 113.46,105.479 113.244,105.069 L112.648,103.944 C111.57,101.906 112.348,99.378 114.387,98.3 C116.426,97.221 118.953,97.999 120.031,100.038 C120.313,100.569 120.468,101.154 120.507,101.717" fill="#000000"/>
    <path d="M117.698,104.965 C117.698,104.965 112.189,129.301 128.286,137.041" fill="#000000"/>
    <path d="M121.602,105.837 C121.405,106.358 121.195,107.088 121.015,107.745 C120.833,108.421 120.664,109.108 120.513,109.802 C120.209,111.189 119.965,112.596 119.79,114.012 C119.443,116.843 119.356,119.717 119.69,122.545 C120.025,125.368 120.781,128.166 122.194,130.691 C123.593,133.218 125.691,135.431 128.286,137.041 C125.412,136.039 122.704,134.266 120.572,131.861 C118.426,129.467 116.873,126.534 115.799,123.476 C114.723,120.407 114.107,117.199 113.79,113.976 C113.633,112.362 113.554,110.742 113.547,109.114 C113.543,108.299 113.559,107.483 113.594,106.66 C113.636,105.818 113.674,105.053 113.794,104.092 L113.818,103.905 C114.096,101.691 116.114,100.122 118.328,100.4 C120.541,100.677 122.11,102.696 121.832,104.909 C121.793,105.227 121.709,105.55 121.602,105.837" fill="#000000"/>
    <path d="M116.527,105.986 C116.527,105.986 101.098,124.219 95.873,136.924" fill="#000000"/>
    <path d="M119.582,108.568 C117.41,110.647 115.22,112.875 113.098,115.101 C110.971,117.338 108.884,119.619 106.857,121.954 C104.831,124.289 102.862,126.677 100.999,129.15 C99.14,131.627 97.374,134.18 95.873,136.924 C96.758,133.921 97.964,130.993 99.281,128.127 C100.604,125.258 102.053,122.446 103.571,119.673 C105.091,116.899 106.684,114.165 108.33,111.459 C109.986,108.746 111.656,106.096 113.472,103.404 C114.715,101.562 117.216,101.076 119.058,102.319 C120.9,103.562 121.385,106.063 120.143,107.905 C119.983,108.142 119.802,108.356 119.604,108.547 L119.582,108.568" fill="#000000"/>
    <g>
      <path d="M48.102,172.142 C48.102,172.142 43.999,154.363 57.219,153.452 C57.219,153.452 67.249,154.821 61.322,169.864 C61.322,169.864 69.071,152.996 79.557,165.304 C79.557,165.304 83.66,171.688 74.086,178.069 C74.086,178.069 87.307,171.23 90.499,181.715 C90.499,181.715 94.601,189.921 80.925,194.024 C80.925,194.024 90.043,192.657 93.689,198.583 C93.689,198.583 98.704,209.525 79.101,209.068 C79.101,209.068 49.47,203.142 48.102,172.142 z" fill="#000000"/>
      <path d="M48.102,172.142 C48.102,172.142 43.999,154.363 57.219,153.452 C57.219,153.452 67.249,154.821 61.322,169.864 C61.322,169.864 69.071,152.996 79.557,165.304 C79.557,165.304 83.66,171.688 74.086,178.069 C74.086,178.069 87.307,171.23 90.499,181.715 C90.499,181.715 94.601,189.921 80.925,194.024 C80.925,194.024 90.043,192.657 93.689,198.583 C93.689,198.583 98.704,209.525 79.101,209.068 C79.101,209.068 49.47,203.142 48.102,172.142 z" fill-opacity="0" stroke="#000000" stroke-width="8" stroke-linecap="round" stroke-linejoin="round"/>
    </g>
    <g>
      <path d="M200.953,172.039 C200.953,172.039 205.056,154.26 191.835,153.349 C191.835,153.349 181.807,154.716 187.733,169.76 C187.733,169.76 179.982,152.893 169.498,165.2 C169.498,165.2 165.396,171.585 174.969,177.966 C174.969,177.966 161.747,171.127 158.557,181.612 C158.557,181.612 154.454,189.819 168.13,193.921 C168.13,193.921 159.013,192.554 155.364,198.481 C155.364,198.481 150.352,209.42 169.954,208.964 C169.954,208.964 199.586,203.039 200.953,172.039 z" fill="#000000"/>
      <path d="M200.953,172.039 C200.953,172.039 205.056,154.26 191.835,153.349 C191.835,153.349 181.807,154.716 187.733,169.76 C187.733,169.76 179.982,152.893 169.498,165.2 C169.498,165.2 165.396,171.585 174.969,177.966 C174.969,177.966 161.747,171.127 158.557,181.612 C158.557,181.612 154.454,189.819 168.13,193.921 C168.13,193.921 159.013,192.554 155.364,198.481 C155.364,198.481 150.352,209.42 169.954,208.964 C169.954,208.964 199.586,203.039 200.953,172.039 z" fill-opacity="0" stroke="#000000" stroke-width="8" stroke-linecap="round" stroke-linejoin="round"/>
    </g>
    <g>
      <path d="M178.628,78.798 C178.628,78.798 202.139,56.178 205.243,91.219 C205.243,91.219 210.122,114.728 178.628,115.172 L178.628,78.798 z" fill="#F9D4AB"/>
      <path d="M178.628,78.798 C178.628,78.798 202.139,56.178 205.243,91.219 C205.243,91.219 210.122,114.728 178.628,115.172 L178.628,78.798 z" fill-opacity="0" stroke="#000000" stroke-width="4" stroke-linecap="round" stroke-linejoin="round"/>
    </g>
    <g>
      <path d="M62.416,78.798 C62.416,78.798 38.907,56.178 35.802,91.219 C35.802,91.219 30.923,114.728 62.416,115.172 L62.416,78.798 z" fill="#F9D4AB"/>
      <path d="M62.416,78.798 C62.416,78.798 38.907,56.178 35.802,91.219 C35.802,91.219 30.923,114.728 62.416,115.172 L62.416,78.798 z" fill-opacity="0" stroke="#000000" stroke-width="4" stroke-linecap="round" stroke-linejoin="round"/>
    </g>
    <g>
      <path d="M72.619,54.403 C72.619,54.403 18.948,140.453 120.523,140.009 C120.523,140.009 207.46,151.542 172.419,54.847 C172.419,54.847 160.886,23.353 114.756,22.91 C114.756,22.91 83.264,32.669 72.619,54.403 z" fill="#F9D4AB"/>
      <path d="M72.619,54.403 C72.619,54.403 18.948,140.453 120.523,140.009 C120.523,140.009 207.46,151.542 172.419,54.847 C172.419,54.847 160.886,23.353 114.756,22.91 C114.756,22.91 83.264,32.669 72.619,54.403 z" fill-opacity="0" stroke="#000000" stroke-width="4" stroke-linecap="round" stroke-linejoin="round"/>
    </g>
    <g>
      <path d="M134.716,8.716 C134.716,8.716 124.071,2.507 116.531,5.611 C116.531,5.611 120.523,7.83 120.523,9.604 C120.523,9.604 60.642,11.82 53.989,65.935 C53.989,65.935 54.432,77.025 58.424,85.452 C58.424,85.452 59.755,77.911 61.973,74.806 C61.973,74.806 58.867,86.34 62.416,92.992 C62.416,92.992 70.843,64.163 77.054,57.064 L77.497,68.153 C77.497,68.153 97.901,55.734 100.119,45.088 C100.119,45.088 104.998,57.508 102.78,64.16 C102.78,64.16 120.523,48.191 125.401,36.659 C125.401,36.659 144.032,48.638 145.806,65.049 C145.806,65.049 151.572,57.509 151.129,41.096 C151.129,41.096 171.977,61.057 175.081,85.452 C175.081,85.452 179.516,68.596 178.628,64.16 C178.628,64.16 183.065,74.806 182.621,81.46 C182.621,81.46 194.154,22.465 144.475,12.708 C144.475,12.708 146.249,12.709 150.685,9.16 C150.685,9.16 140.926,5.611 134.716,8.716 z" fill="#A66A53"/>
      <path d="M134.716,8.716 C134.716,8.716 124.071,2.507 116.531,5.611 C116.531,5.611 120.523,7.83 120.523,9.604 C120.523,9.604 60.642,11.82 53.989,65.935 C53.989,65.935 54.432,77.025 58.424,85.452 C58.424,85.452 59.755,77.911 61.973,74.806 C61.973,74.806 58.867,86.34 62.416,92.992 C62.416,92.992 70.843,64.163 77.054,57.064 L77.497,68.153 C77.497,68.153 97.901,55.734 100.119,45.088 C100.119,45.088 104.998,57.508 102.78,64.16 C102.78,64.16 120.523,48.191 125.401,36.659 C125.401,36.659 144.032,48.638 145.806,65.049 C145.806,65.049 151.572,57.509 151.129,41.096 C151.129,41.096 171.977,61.057 175.081,85.452 C175.081,85.452 179.516,68.596 178.628,64.16 C178.628,64.16 183.065,74.806 182.621,81.46 C182.621,81.46 194.154,22.465 144.475,12.708 C144.475,12.708 146.249,12.709 150.685,9.16 C150.685,9.16 140.926,5.611 134.716,8.716 z" fill-opacity="0" stroke="#000000" stroke-width="4" stroke-linecap="round" stroke-linejoin="round"/>
    </g>
    <g>
      <path d="M95.24,86.782 C95.24,86.782 129.838,96.098 148.023,85.896 C148.023,85.896 172.419,134.243 131.611,145.333 C131.611,145.333 68.626,151.986 95.24,86.782 z" fill="#ECAAC3"/>
      <path d="M95.24,86.782 C95.24,86.782 129.838,96.098 148.023,85.896 C148.023,85.896 172.419,134.243 131.611,145.333 C131.611,145.333 68.626,151.986 95.24,86.782 z" fill-opacity="0" stroke="#000000" stroke-width="3.992" stroke-linecap="round" stroke-linejoin="round"/>
    </g>
    <path d="M138.709,63.274 C138.709,63.274 152.017,48.193 172.419,54.847 M99.676,63.274 C99.676,63.274 86.369,48.193 65.965,54.847" fill-opacity="0" stroke="#000000" stroke-width="3" stroke-linecap="round" stroke-linejoin="round"/>
    <path d="M157.339,68.597 L143.587,76.137 L160,80.574 M85.705,68.597 L99.455,76.137 L83.043,80.574" fill-opacity="0" stroke="#000000" stroke-width="3.992" stroke-linecap="round" stroke-linejoin="round"/>
    <g>
      <path d="M124.071,80.574 C124.071,82.656 122.383,84.344 120.3,84.344 C118.218,84.344 116.53,82.656 116.53,80.574 C116.53,78.492 118.218,76.804 120.3,76.804 C122.383,76.804 124.071,78.492 124.071,80.574 z" fill="#FFF101"/>
      <path d="M124.071,80.574 C124.071,82.656 122.383,84.344 120.3,84.344 C118.218,84.344 116.53,82.656 116.53,80.574 C116.53,78.492 118.218,76.804 120.3,76.804 C122.383,76.804 124.071,78.492 124.071,80.574 z" fill-opacity="0" stroke="#000000" stroke-width="2.661" stroke-linecap="round" stroke-linejoin="round"/>
    </g>
    <path d="M171.532,87.005 C171.532,85.658 168.255,84.566 164.214,84.566 C160.171,84.566 156.896,85.658 156.896,87.005 C156.896,88.353 160.171,89.444 164.214,89.444 C168.255,89.444 171.532,88.353 171.532,87.005" fill="#E782AA"/>
    <path d="M84.594,87.005 C84.594,85.658 81.317,84.566 77.275,84.566 C73.233,84.566 69.957,85.658 69.957,87.005 C69.957,88.353 73.233,89.444 77.275,89.444 C81.317,89.444 84.594,88.353 84.594,87.005" fill="#E782AA"/>
    <path d="M121.923,14.342 C121.923,14.342 104.294,15.945 100.689,19.951 L124.326,19.551 L117.917,29.967 L135.946,19.149 L129.937,17.947 L133.542,14.743 L125.527,15.144 L126.729,10.736 L121.923,14.342" fill="#9B584C"/>
    <path d="M141.554,16.746 C141.554,16.746 157.98,19.149 161.585,23.957 L145.562,22.355 L141.152,32.371 L136.746,17.947 L141.152,23.157 L141.554,16.746" fill="#9B584C"/>
    <g>
      <path d="M122.369,210.101 C122.369,210.101 48.585,213.175 52.684,164.499 C52.684,164.499 53.029,132.437 99.095,116.72 C99.095,116.72 115.061,110.034 116.687,102.446 C116.687,102.446 126.101,111.681 141.369,114.01 C173.344,118.888 198.46,137.085 196.068,169.536 C196.068,169.536 196.922,215.225 122.369,210.101 z" fill="#FFFBD7"/>
      <path d="M122.369,210.101 C122.369,210.101 48.585,213.175 52.684,164.499 C52.684,164.499 53.029,132.437 99.095,116.72 C99.095,116.72 115.061,110.034 116.687,102.446 C116.687,102.446 126.101,111.681 141.369,114.01 C173.344,118.888 198.46,137.085 196.068,169.536 C196.068,169.536 196.922,215.225 122.369,210.101 z" fill-opacity="0" stroke="#000000" stroke-width="4.808"/>
    </g>
    <path d="M118.429,102.676 C118.76,103.44 119.273,104.348 119.779,105.163 C120.297,105.995 120.862,106.808 121.46,107.601 C122.658,109.185 123.99,110.683 125.428,112.083 C128.303,114.886 131.59,117.301 135.13,119.301 C142.222,123.322 150.273,125.643 158.457,126.73 C150.22,126.207 141.936,124.454 134.341,120.819 C130.55,119.01 126.947,116.737 123.702,113.983 C122.079,112.608 120.548,111.111 119.136,109.491 C118.432,108.679 117.756,107.838 117.119,106.957 C116.477,106.056 115.895,105.205 115.322,104.11 C114.883,103.272 115.207,102.237 116.046,101.798 C116.884,101.359 117.919,101.684 118.358,102.523 C118.377,102.559 118.394,102.595 118.41,102.632 L118.429,102.676" fill="#000000"/>
    <path d="M119.369,105.338 C118.666,108.08 118.239,111.077 118.074,114.002 C117.917,116.945 118.03,119.915 118.577,122.812 C119.124,125.702 120.107,128.538 121.73,131.026 C123.338,133.518 125.611,135.605 128.286,137.041 C125.492,135.864 122.957,133.966 121.036,131.527 C119.1,129.095 117.775,126.201 116.913,123.21 C116.048,120.21 115.634,117.098 115.507,113.986 C115.397,110.855 115.525,107.789 116.028,104.592 C116.175,103.656 117.053,103.017 117.988,103.165 C118.923,103.312 119.563,104.19 119.415,105.124 C119.407,105.178 119.396,105.23 119.383,105.281 L119.369,105.338" fill="#000000"/>
    <path d="M117.835,107.09 C115.764,109.345 113.723,111.693 111.734,114.059 C109.744,116.43 107.799,118.841 105.917,121.301 C104.036,123.762 102.216,126.271 100.507,128.857 C98.804,131.445 97.197,134.106 95.873,136.924 C96.934,133.996 98.3,131.174 99.773,128.419 C101.25,125.664 102.848,122.974 104.511,120.325 C106.176,117.677 107.91,115.072 109.694,112.501 C111.483,109.927 113.302,107.398 115.22,104.881 C115.794,104.128 116.869,103.983 117.622,104.557 C118.375,105.131 118.52,106.206 117.946,106.959 C117.914,107 117.881,107.04 117.847,107.077 L117.835,107.09" fill="#000000"/>
    <g>
      <path d="M48.102,172.142 C48.102,172.142 43.999,154.363 57.219,153.452 C57.219,153.452 67.249,154.821 61.322,169.864 C61.322,169.864 69.071,152.996 79.557,165.304 C79.557,165.304 83.66,171.688 74.086,178.069 C74.086,178.069 87.307,171.23 90.499,181.715 C90.499,181.715 94.601,189.921 80.925,194.024 C80.925,194.024 90.043,192.657 93.689,198.583 C93.689,198.583 98.704,209.525 79.101,209.068 C79.101,209.068 49.47,203.142 48.102,172.142 z" fill="#F9D4AB"/>
      <path d="M48.102,172.142 C48.102,172.142 43.999,154.363 57.219,153.452 C57.219,153.452 67.249,154.821 61.322,169.864 C61.322,169.864 69.071,152.996 79.557,165.304 C79.557,165.304 83.66,171.688 74.086,178.069 C74.086,178.069 87.307,171.23 90.499,181.715 C90.499,181.715 94.601,189.921 80.925,194.024 C80.925,194.024 90.043,192.657 93.689,198.583 C93.689,198.583 98.704,209.525 79.101,209.068 C79.101,209.068 49.47,203.142 48.102,172.142 z" fill-opacity="0" stroke="#000000" stroke-width="3.863" stroke-linecap="round" stroke-linejoin="round"/>
    </g>
    <g>
      <path d="M200.953,172.039 C200.953,172.039 205.056,154.26 191.835,153.349 C191.835,153.349 181.807,154.716 187.733,169.76 C187.733,169.76 179.982,152.893 169.498,165.2 C169.498,165.2 165.396,171.585 174.969,177.966 C174.969,177.966 161.747,171.127 158.557,181.612 C158.557,181.612 154.454,189.819 168.13,193.921 C168.13,193.921 159.013,192.554 155.364,198.481 C155.364,198.481 150.352,209.42 169.954,208.964 C169.954,208.964 199.586,203.039 200.953,172.039 z" fill="#F9D4AB"/>
      <path d="M200.953,172.039 C200.953,172.039 205.056,154.26 191.835,153.349 C191.835,153.349 181.807,154.716 187.733,169.76 C187.733,169.76 179.982,152.893 169.498,165.2 C169.498,165.2 165.396,171.585 174.969,177.966 C174.969,177.966 161.747,171.127 158.557,181.612 C158.557,181.612 154.454,189.819 168.13,193.921 C168.13,193.921 159.013,192.554 155.364,198.481 C155.364,198.481 150.352,209.42 169.954,208.964 C169.954,208.964 199.586,203.039 200.953,172.039 z" fill-opacity="0" stroke="#000000" stroke-width="3.863" stroke-linecap="round" stroke-linejoin="round"/>
    </g>
    <path d="M197.711,140.804 C197.711,140.804 192.418,130.63 203.87,127.232 C215.321,123.837 212.113,113.978 211.037,111.685 C209.959,109.391 207.481,94.666 222.088,94.871 C236.693,95.075 241.858,81.498 236.232,76.39 M201.756,151.922 C201.756,151.922 203.329,142.496 213.068,145.952 C222.811,149.409 228.466,144.695 226.581,136.524 C224.695,128.355 230.665,122.07 238.208,124.584 M46.135,146.814 C46.135,146.814 51.427,136.64 39.976,133.242 C28.524,129.847 31.731,119.987 32.809,117.694 C33.885,115.4 36.364,100.676 21.758,100.88 C7.151,101.085 1.986,87.507 7.613,82.399 M38.79,156.169 C38.79,156.169 37.218,146.742 27.478,150.199 C17.737,153.655 12.081,148.941 13.966,140.771 C15.852,132.602 9.881,126.316 2.34,128.831" fill-opacity="0" stroke="#6098AC" stroke-width="3.03" stroke-linecap="round" stroke-linejoin="round"/>
  </g>
</svg>
